<svg xmlns="http://www.w3.org/2000/svg" width="40" height="40" viewBox="0 0 40 40">
  <g id="Group_471" data-name="Group 471" transform="translate(-163 -6905)">
    <circle id="Ellipse_9" data-name="Ellipse 9" cx="20" cy="20" r="20" transform="translate(163 6905)" fill="#fff"/>
    <path id="Icon_akar-telegram-fill" data-name="Icon akar-telegram-fill" d="M40,20A20,20,0,1,1,20,0,20,20,0,0,1,40,20ZM20.717,14.765Q17.8,15.978,9.053,19.788q-1.42.565-1.488,1.1c-.077.61.687.85,1.723,1.175.142.045.288.09.438.14a14.271,14.271,0,0,0,3.108.735,3.812,3.812,0,0,0,2.17-.8q8.17-5.517,8.435-5.577a.459.459,0,0,1,.415.04.411.411,0,0,1,.093.353A56.552,56.552,0,0,1,19.332,21.5c-.483.448-.825.767-.9.84-.157.162-.317.317-.47.465-.95.913-1.66,1.6.04,2.72.817.538,1.47.983,2.122,1.427.712.485,1.422.968,2.342,1.572.233.153.457.312.675.467a3.809,3.809,0,0,0,2.493,1.038c.533-.05,1.087-.552,1.367-2.05.662-3.543,1.965-11.217,2.267-14.38a3.518,3.518,0,0,0-.033-.787.843.843,0,0,0-.287-.542,1.305,1.305,0,0,0-.775-.233c-.752.013-1.905.415-7.46,2.725Z" transform="translate(163 6905)" fill="#c4a3fd"/>
  </g>
</svg>
